<svg data-v-0dd9719b="" version="1.0" xmlns="http://www.w3.org/2000/svg" xmlns:xlink="http://www.w3.org/1999/xlink" width="100%" height="100%" viewBox="0 0 340.000000 250.000000" preserveAspectRatio="xMidYMid meet" color-interpolation-filters="sRGB" style="margin: auto;"> <rect data-v-0dd9719b="" x="0" y="0" width="100%" height="100%" fill="#fff" fill-opacity="1" class="background"></rect> <rect data-v-0dd9719b="" x="0" y="0" width="100%" height="100%" fill="url(#watermark)" fill-opacity="1" class="watermarklayer"></rect> <g data-v-0dd9719b="" fill="#333" class="icon-text-wrapper icon-svg-group iconsvg" transform="translate(80.79499816894531,81.63582229614258)"><g class="iconsvg-imagesvg" transform="translate(59.20500183105469,0)"><g><rect fill="#333" fill-opacity="0" stroke-width="2" x="0" y="0" width="60.00000000000001" height="64.06833956219968" class="image-rect"></rect> <svg x="0" y="0" width="60.00000000000001" height="64.06833956219968" filtersec="colorsb9763861315" class="image-svg-svg primary" style="overflow: visible;"><svg xmlns="http://www.w3.org/2000/svg" viewBox="-0.0014283348573371768 0 60.87229537963867 65"><g fill-opacity=".8"><path d="M60.87 37.88v.25c-.12 6.15-4.5 11.1-9.9 11.1a8.87 8.87 0 0 1-3.51-.74L14.07 15.35a10.67 10.67 0 0 1-1.59-5.62A10.9 10.9 0 0 1 18.58 0h31a11.41 11.41 0 0 1 11.29 11.55z" fill="#d13bfc"></path><path d="M30.77 10.62c10.92 0 19.77 9.54 19.77 21.3s-8.85 21.29-19.77 21.29S11 43.68 11 31.92s8.84-21.3 19.77-21.3z" fill="#02c0fa"></path><path d="M0 27.08v-.25c.12-6.15 4.51-11.09 9.9-11.09a8.82 8.82 0 0 1 3.51.73L46.8 49.62a10.63 10.63 0 0 1 1.59 5.61A10.92 10.92 0 0 1 42.3 65h-31A11.41 11.41 0 0 1 0 53.41z" fill="#5c36ee"></path></g></svg></svg> <!----></g></g> <g transform="translate(0,71.06834411621094)"><g data-gra="path-name" fill-rule="" class="tp-name iconsvg-namesvg"><g transform="scale(1)"><g><path d="M8.52-1.98L10.55-1.98 14.92-9.74 15.03-9.74 15.03 0 17.96 0 17.96-15.22 14.98-15.22 9.72-5.5 9.63-5.5 4.41-15.22 1.48-15.22ZM1.48 0L4.33 0 4.33-5.98 1.48-11.33ZM28.72-15.22L25.01-15.22 19.55 0 22.72 0 26.77-12.07 26.98-12.07 31.31 0 34.7 0ZM39.25-12.87L39.25-15.22 36.29-15.22 36.29-12.87ZM36.29 0L39.23 0 39.23-10.87 36.29-10.87ZM55.86 0.22C60.19 0.22 62.54-2.33 63.04-5.48L60.06-5.48C59.56-3.59 58.01-2.35 55.77-2.35 52.8-2.35 50.9-4.98 50.9-7.83 50.9-10.83 53.01-12.85 55.73-12.85 58.32-12.85 59.67-11.39 60.1-9.59L63.04-9.59C62.6-13.33 59.67-15.44 55.54-15.44 50.9-15.44 48.03-11.94 48.03-7.61 48.03-3.31 50.66 0.22 55.86 0.22ZM72.37-15.44L72.37-12.66C75.24-12.66 77.41-11 77.41-7.61 77.41-4.22 75.24-2.54 72.37-2.54 69.58-2.54 67.43-4.22 67.43-7.61 67.43-7.61 64.47-7.61 64.47-7.61 64.47-2.59 67.97 0.22 72.37 0.22 76.87 0.22 80.35-2.37 80.35-7.61 80.35-12.61 76.87-15.44 72.37-15.44ZM92.91 0L95.78 0 95.78-15.22 92.98-15.22 92.98-4.74 92.87-4.74 85.52-15.22 82.5-15.22ZM82.63 0L85.48 0 85.48-7.46 82.63-11.52ZM102.85 0L105.85 0 100.37-15.22 97.28-15.22ZM106.83-2.26L111.94-15.22 108.59-15.22 105.44-6.07ZM127.36 0L130.29 0 130.29-5.37 133.71-5.37 136.55 0 139.86 0 136.32-5.87C138.16-6.78 138.99-8.78 138.99-10.42 138.99-13.48 137.08-15.22 133.64-15.22L113.31-15.22 113.31-12.57 133.31-12.57C135.27-12.57 136.23-11.85 136.23-10.35 136.23-8.74 135.1-7.81 133.34-7.81L127.36-7.81ZM124.57-6.26L124.57-8.96 113.31-8.96 113.31-6.26ZM113.31 0L124.57 0 124.57-2.87 113.31-2.87ZM139.79-15.22L139.79-12.37 151.88-12.37 151.88-15.22ZM144.38-10.44L144.38 0 147.32 0 147.32-10.44ZM167.39 0L170.32 0 170.32-5.37 173.74-5.37 176.59 0 179.89 0 176.35-5.87C178.2-6.78 179.02-8.78 179.02-10.42 179.02-13.48 177.11-15.22 173.67-15.22L153.34-15.22 153.34-12.57 173.35-12.57C175.3-12.57 176.26-11.85 176.26-10.35 176.26-8.74 175.13-7.81 173.37-7.81L167.39-7.81ZM164.6-6.26L164.6-8.96 153.34-8.96 153.34-6.26ZM153.34 0L164.6 0 164.6-2.87 153.34-2.87Z" transform="translate(-1.4800000190734863, 15.4399995803833)"></path></g> <!----> <!----> <!----> <!----> <!----> <!----> <!----></g></g> <!----></g></g><defs v-gra="od"></defs></svg>